<?xml version="1.0" standalone="no"?>
<!DOCTYPE svg PUBLIC "-//W3C//DTD SVG 20010904//EN"
 "http://www.w3.org/TR/2001/REC-SVG-20010904/DTD/svg10.dtd">
<svg version="1.0" xmlns="http://www.w3.org/2000/svg"
 width="512.000000pt" height="512.000000pt" viewBox="0 0 512.000000 512.000000"
 preserveAspectRatio="xMidYMid meet">
<metadata>
Created by potrace 1.11, written by Peter Selinger 2001-2013
</metadata>
<g transform="translate(0.000000,512.000000) scale(0.100000,-0.100000)"
fill="#000000" stroke="none">
<path d="M2379 5116 c-2 -2 -35 -6 -74 -10 -103 -9 -246 -33 -360 -62 -115
-28 -256 -73 -268 -84 -5 -4 22 -23 60 -43 152 -77 372 -211 479 -290 40 -30
72 -47 82 -44 9 3 49 18 87 33 58 22 87 27 170 28 55 0 114 -2 130 -5 64 -14
147 -52 202 -93 l58 -42 80 34 c125 53 447 157 595 192 74 18 153 37 174 42
l40 10 -75 39 c-41 22 -110 56 -154 75 -44 19 -89 39 -100 44 -93 41 -357 116
-490 139 -57 10 -79 13 -170 27 -46 6 -460 16 -466 10z"/>
<path d="M1125 4679 c-207 -140 -393 -312 -552 -507 l-76 -93 23 -42 c34 -60
115 -188 187 -292 63 -92 260 -342 287 -364 12 -10 30 -7 93 12 80 26 196 31
284 13 33 -7 39 -4 75 34 174 185 353 350 504 467 68 52 87 72 83 87 -10 34
-6 191 6 234 7 23 9 47 6 52 -9 15 -164 117 -293 193 -124 74 -339 184 -447
229 -38 16 -75 31 -80 34 -6 2 -51 -23 -100 -57z"/>
<path d="M4200 4449 c-30 -4 -79 -11 -109 -14 -30 -3 -86 -13 -125 -21 -39 -8
-84 -17 -101 -19 -16 -2 -37 -6 -45 -9 -8 -3 -27 -7 -41 -10 -98 -16 -428
-119 -579 -180 l-85 -34 -1 -49 c-1 -72 -14 -142 -35 -198 -23 -59 -22 -51 -6
-67 29 -29 168 -209 234 -303 62 -89 193 -291 193 -299 0 -2 23 -43 51 -91 72
-125 185 -362 232 -485 14 -36 29 -74 33 -85 4 -11 22 -58 38 -105 l31 -85 60
-7 c163 -18 320 -125 410 -281 24 -42 31 -47 54 -43 14 3 51 8 81 11 49 5 80
10 195 30 91 15 348 76 381 90 17 7 31 19 31 26 1 8 5 46 9 84 11 88 11 405 2
505 -54 540 -280 1056 -638 1453 -86 96 -179 185 -197 190 -10 2 -43 1 -73 -4z"/>
<path d="M218 3592 c-112 -256 -175 -492 -206 -772 -9 -85 -8 -459 1 -530 21
-152 22 -158 42 -255 53 -256 125 -446 280 -744 23 -44 22 -46 70 166 36 163
51 219 107 393 34 104 83 235 98 262 6 10 10 22 10 28 0 12 65 155 136 298
l51 103 -39 74 c-69 131 -84 285 -43 423 l16 52 -87 103 c-47 56 -94 111 -103
122 -37 46 -147 196 -209 288 -36 53 -68 97 -71 97 -3 0 -27 -49 -53 -108z"/>
<path d="M2170 3599 c-137 -111 -297 -261 -428 -401 l-34 -36 21 -40 c39 -77
61 -178 57 -266 -3 -45 -7 -97 -11 -116 -7 -37 -11 -34 124 -115 288 -174 578
-304 908 -409 141 -45 425 -110 525 -121 l57 -6 20 38 c10 22 41 63 67 92 l47
52 -13 42 c-21 72 -117 310 -173 429 -132 278 -332 593 -529 832 l-24 28 -54
-16 c-132 -40 -286 -25 -412 39 -38 19 -70 35 -71 35 -1 -1 -36 -28 -77 -61z"/>
<path d="M1488 2390 c-82 -44 -130 -54 -247 -55 l-113 0 -58 -120 c-89 -184
-125 -276 -201 -500 -28 -83 -92 -317 -103 -375 -3 -14 -10 -50 -16 -80 -6
-30 -13 -71 -16 -90 -2 -19 -7 -44 -9 -56 -11 -50 -19 -109 -31 -234 l-6 -65
49 -50 c130 -134 313 -281 473 -380 84 -51 300 -164 339 -177 9 -2 31 20 59
61 269 396 636 780 992 1041 41 30 77 57 80 60 29 30 337 223 474 296 84 44
96 53 75 58 -13 3 -62 12 -109 21 -196 37 -592 151 -721 207 -19 9 -79 35
-134 58 -223 95 -443 211 -638 337 -54 35 -99 63 -100 63 -1 -1 -19 -10 -39
-20z"/>
<path d="M4940 1769 c-39 -10 -119 -27 -165 -35 -16 -2 -37 -7 -45 -9 -8 -2
-42 -7 -75 -11 -33 -3 -62 -7 -65 -9 -3 -2 -37 -6 -75 -10 -120 -11 -117 -9
-154 -85 -43 -89 -121 -174 -205 -225 l-67 -40 6 -70 c13 -153 6 -463 -15
-669 -6 -55 -8 -101 -6 -104 7 -6 159 119 245 201 115 111 176 179 295 327 6
9 42 60 78 115 111 167 226 399 287 578 21 61 21 61 -39 46z"/>
<path d="M3400 1363 c-532 -277 -998 -667 -1340 -1120 -133 -176 -129 -169
-107 -170 6 -1 44 -8 83 -17 39 -9 88 -18 110 -21 21 -4 50 -8 64 -11 70 -13
173 -18 345 -19 231 0 299 6 505 46 58 12 115 23 128 25 45 9 319 103 384 132
37 17 69 38 72 49 8 27 44 259 52 333 3 36 8 76 11 90 8 40 12 571 5 613 -6
33 -13 40 -67 66 -33 16 -73 39 -90 49 l-30 20 -125 -65z"/>
</g>
</svg>
